<?xml version="1.0" encoding="UTF-8"?>
<svg xmlns="http://www.w3.org/2000/svg" xmlns:xlink="http://www.w3.org/1999/xlink" width="30px" height="30px" viewBox="0 0 30 30" version="1.1">
<g id="surface1">
<path style=" stroke:none;fill-rule:evenodd;fill:rgb(0%,0%,0%);fill-opacity:1;" d="M 19.554688 7 L 17.5 4.945312 L 20 4.945312 C 22.761719 4.945312 25 7.183594 25 9.945312 L 26.667969 9.945312 C 26.667969 6.261719 23.683594 3.277344 20 3.277344 L 17.5 3.277344 L 19.597656 1.179688 L 18.421875 0 L 14.308594 4.109375 L 18.375 8.175781 Z M 20 13.332031 C 20 11.492188 18.507812 10 16.667969 10 L 3.332031 10 C 1.492188 10 0 11.492188 0 13.332031 L 0 26.667969 C 0 28.507812 1.492188 30 3.332031 30 L 16.667969 30 C 18.507812 30 20 28.507812 20 26.667969 Z M 16.667969 11.667969 L 3.332031 11.667969 C 2.414062 11.667969 1.667969 12.414062 1.667969 13.332031 L 1.667969 26.667969 C 1.667969 27.585938 2.414062 28.332031 3.332031 28.332031 L 16.667969 28.332031 C 17.585938 28.332031 18.332031 27.585938 18.332031 26.667969 L 18.332031 13.332031 C 18.332031 12.414062 17.585938 11.667969 16.667969 11.667969 Z M 16.667969 11.667969 "/>
</g>
</svg>
